<?xml version="1.0" standalone="no"?>
<!DOCTYPE svg PUBLIC "-//W3C//DTD SVG 20010904//EN"
 "http://www.w3.org/TR/2001/REC-SVG-20010904/DTD/svg10.dtd">
<svg version="1.0" xmlns="http://www.w3.org/2000/svg"
 width="800.000000pt" height="800.000000pt" viewBox="0 0 800.000000 800.000000"
 preserveAspectRatio="xMidYMid meet">

<g transform="translate(0.000000,800.000000) scale(0.100000,-0.100000)"
fill="#000000" stroke="none">
<path d="M2 7949 l3 -51 110 -37 c61 -21 150 -52 200 -70 49 -17 128 -38 175
-47 47 -8 95 -20 107 -26 33 -17 176 -4 215 19 20 12 50 48 78 93 24 41 66 96
92 123 l47 47 -515 0 -515 0 3 -51z m418 -36 c0 -1 -17 -10 -37 -18 -36 -15
-39 -15 -56 6 -17 21 -17 22 20 54 l37 32 18 -36 c10 -19 18 -36 18 -38z"/>
<path d="M1055 7981 c-49 -31 -103 -93 -148 -171 -50 -87 -89 -112 -182 -118
-133 -9 -412 53 -580 129 -22 10 -64 27 -93 38 l-52 19 0 -2225 c0 -2115 1
-2225 18 -2218 53 23 90 34 112 35 14 0 31 4 38 9 18 11 99 -30 135 -67 37
-38 45 -77 38 -184 -1 -24 -86 -114 -126 -132 -46 -22 -118 -20 -165 4 -22 11
-42 20 -45 20 -3 0 -5 -157 -5 -350 l0 -350 22 0 c21 0 21 0 2 23 -10 12 -12
16 -4 10 22 -20 30 -15 31 20 l2 32 6 -35 c4 -23 9 -31 14 -23 5 7 13 13 19
13 6 0 3 -9 -7 -20 -18 -20 -17 -20 21 -21 l39 -2 -40 -6 c-36 -5 -41 -9 -46
-41 l-6 -35 -2 35 c-1 26 -4 31 -13 22 -17 -17 -33 -15 -18 3 10 12 10 15 -4
15 -14 0 -16 -15 -16 -105 0 -63 4 -105 10 -105 6 0 10 -16 10 -35 0 -19 -5
-35 -11 -35 -7 0 -9 -33 -5 -102 3 -57 5 -114 5 -128 -6 -278 -8 -750 -4 -750
4 0 101 41 217 90 122 52 215 87 220 82 5 -5 8 -40 6 -78 l-3 -69 -173 -74
c-95 -41 -169 -78 -165 -82 5 -5 82 -40 173 -78 l165 -70 3 -73 3 -73 -176
-75 c-96 -41 -175 -77 -175 -80 0 -3 79 -39 175 -80 l176 -75 -3 -73 -3 -74
-220 -93 c-202 -85 -220 -95 -223 -119 -5 -40 46 -58 156 -54 l87 3 -73 29
c-39 16 -72 35 -72 43 0 22 34 15 143 -32 l106 -45 260 0 c254 0 261 1 261 20
0 13 -7 20 -20 20 -26 0 -26 30 -1 37 11 3 21 13 24 24 7 25 37 25 37 0 0 -10
9 -21 20 -24 26 -7 26 -37 0 -37 -13 0 -20 -7 -20 -20 0 -20 6 -20 538 -19
l537 0 -62 29 -63 29 0 74 0 74 244 104 c134 57 242 107 240 110 -6 10 -310
139 -326 139 -7 0 -30 -8 -51 -18 l-39 -17 126 -54 c69 -29 128 -57 131 -61 3
-4 -1 -12 -8 -18 -8 -7 -55 8 -162 53 l-150 64 -3 74 -3 75 273 116 c150 64
276 116 281 116 4 0 7 -35 7 -77 l0 -78 -176 -75 c-131 -56 -171 -77 -157 -82
10 -5 90 -39 178 -77 l160 -69 0 -73 0 -72 -177 -76 c-98 -41 -174 -78 -170
-82 4 -3 72 -33 152 -67 l145 -62 260 0 260 1 -192 82 -193 82 0 75 0 75 175
75 c96 41 171 77 167 81 -4 4 -81 39 -172 77 l-165 69 0 77 0 77 168 71 c92
39 167 74 167 77 0 4 -75 39 -167 78 l-168 71 -3 76 c-2 64 0 76 13 76 22 0
538 -220 548 -234 4 -6 6 -40 5 -76 l-3 -65 -145 -62 c-155 -66 -183 -73 -178
-46 2 10 46 34 118 65 63 27 117 51 119 54 8 8 -21 23 -55 30 -25 4 -65 -8
-188 -62 -87 -37 -154 -70 -149 -74 4 -4 112 -52 238 -106 127 -54 233 -103
237 -108 4 -6 8 -40 8 -76 l0 -66 -152 -64 c-84 -36 -157 -65 -163 -65 -5 0
-11 7 -13 16 -2 12 30 29 122 69 69 29 123 56 120 61 -3 5 -22 14 -44 20 -38
11 -46 9 -199 -57 -88 -38 -161 -71 -161 -74 0 -3 105 -50 233 -104 127 -55
238 -104 245 -109 6 -5 12 -27 12 -48 l0 -39 298 1 c251 1 291 3 257 13 l-40
13 -3 79 c-3 71 -1 81 19 96 12 10 27 18 35 18 14 0 414 168 427 180 4 3 -68
39 -159 78 -166 71 -167 71 -201 56 -18 -9 -33 -20 -33 -24 0 -4 54 -32 120
-60 66 -29 120 -57 120 -62 0 -24 -41 -16 -148 29 -64 27 -130 54 -147 59
l-30 9 0 80 0 80 243 104 c133 58 239 108 235 112 -5 4 -79 38 -165 75 l-157
67 -41 -18 c-22 -10 -37 -22 -33 -26 4 -4 58 -29 118 -54 125 -53 127 -55 116
-74 -7 -11 -39 -1 -163 52 l-153 66 -3 73 -3 73 267 113 c146 62 274 112 283
110 13 -3 16 -16 16 -73 l0 -69 -172 -74 c-95 -41 -173 -77 -173 -81 0 -5 148
-69 313 -136 l38 -16 -3 -72 -3 -72 -172 -74 c-95 -41 -173 -78 -173 -81 0 -4
79 -40 175 -80 l175 -74 0 -72 0 -72 -217 -92 c-255 -108 -276 -119 -260 -134
34 -32 90 -46 180 -46 l92 1 -72 31 c-69 29 -96 58 -54 58 10 0 64 -20 121
-45 l103 -45 263 0 c257 0 264 1 264 20 0 13 -7 20 -20 20 -26 0 -26 30 -1 37
11 3 21 13 24 24 7 25 27 25 34 0 3 -11 13 -21 24 -24 25 -7 25 -37 -1 -37
-13 0 -20 -7 -20 -20 0 -20 7 -20 472 -20 259 0 469 2 466 5 -2 3 -31 16 -64
29 l-58 24 1 73 c1 40 6 75 10 79 4 3 113 51 241 105 127 54 232 101 232 105
0 9 -311 141 -330 140 -8 -1 -30 -9 -48 -19 l-34 -17 126 -54 c73 -30 126 -59
126 -66 0 -8 -8 -14 -19 -14 -16 0 -269 104 -296 122 -12 7 -10 138 2 148 23
20 538 229 545 222 5 -5 8 -40 6 -78 l-3 -68 -170 -74 c-93 -40 -170 -74 -172
-76 -1 -1 76 -36 172 -77 l175 -74 0 -75 0 -75 -175 -74 c-97 -41 -172 -78
-168 -82 4 -4 73 -34 152 -68 l144 -61 255 2 256 3 -189 81 -190 81 0 73 0 73
177 76 c97 42 174 79 170 82 -4 3 -79 36 -167 74 -88 37 -166 72 -172 77 -17
14 -17 132 0 145 6 5 85 41 175 79 89 38 162 71 162 74 0 3 -69 34 -153 69
-209 88 -197 78 -197 157 0 49 4 66 15 71 15 5 509 -198 540 -222 9 -6 15 -35
16 -79 l2 -70 -151 -64 c-90 -39 -157 -62 -167 -58 -30 11 -1 31 120 82 63 26
115 51 115 55 0 8 -56 29 -79 29 -17 0 -332 -132 -327 -137 2 -2 111 -50 242
-106 l239 -103 5 -73 c3 -43 1 -76 -5 -79 -5 -4 -75 -35 -155 -68 -104 -45
-149 -59 -157 -52 -7 6 -11 14 -8 18 3 4 61 32 129 61 69 29 123 56 121 59 -2
4 -22 13 -45 20 -40 13 -42 12 -200 -56 -88 -38 -160 -71 -160 -75 0 -3 108
-52 240 -108 l240 -103 0 -44 0 -44 428 0 427 1 -110 47 -110 48 0 78 0 78
235 99 c129 55 239 104 243 108 5 5 -67 40 -158 79 l-167 71 -39 -16 c-22 -8
-39 -19 -39 -23 0 -4 56 -31 125 -60 69 -28 125 -56 125 -61 0 -25 -40 -15
-177 43 l-148 64 0 74 0 74 243 104 c134 58 240 108 235 113 -4 4 -79 37 -165
73 l-157 66 -41 -16 c-23 -9 -38 -20 -33 -25 4 -4 58 -29 118 -54 123 -53 134
-60 118 -76 -9 -9 -50 5 -165 54 l-153 66 0 73 0 73 270 116 c149 64 276 114
283 112 17 -7 17 -137 0 -150 -7 -5 -86 -40 -176 -78 -89 -38 -159 -72 -155
-76 4 -4 82 -39 173 -78 l165 -70 3 -73 3 -74 -176 -74 c-96 -40 -175 -76
-175 -80 0 -3 79 -39 175 -80 l175 -75 0 -71 0 -72 -251 -107 c-137 -59 -247
-111 -242 -115 4 -4 62 -31 129 -59 118 -51 122 -52 208 -49 l87 3 -140 59
c-78 32 -141 63 -141 68 0 25 44 15 178 -43 81 -34 154 -68 163 -76 10 -8 42
-13 87 -13 l72 0 0 110 c0 109 0 111 -21 100 -39 -21 -49 -6 -49 70 l0 71 35
15 35 14 0 129 0 129 -35 12 -35 12 0 74 0 75 35 15 35 14 0 123 0 123 -35 17
-35 17 0 74 0 74 35 12 35 12 0 124 0 124 -35 14 -35 15 0 71 c0 76 10 91 49
70 l21 -11 0 993 0 992 -42 -41 c-89 -86 -204 -72 -284 33 -26 33 -29 46 -29
108 0 58 4 77 23 103 28 40 74 68 134 83 42 11 52 10 90 -9 24 -11 58 -34 76
-50 l32 -30 0 993 0 993 -42 -10 c-50 -11 -205 -82 -231 -105 -24 -21 -21 -54
8 -86 14 -15 19 -26 11 -26 -23 0 -56 45 -56 77 0 34 47 93 73 93 9 0 37 9 63
21 l48 20 -31 24 c-67 53 -65 140 3 172 31 15 37 15 68 0 26 -12 37 -26 45
-53 10 -38 5 -90 -10 -100 -22 -13 -6 -21 21 -11 l30 11 0 334 0 335 -34 38
c-60 66 -60 134 -2 315 l36 111 0 342 0 343 -30 -25 c-36 -30 -94 -51 -122
-44 -12 3 -34 -1 -49 -9 -47 -24 -82 -16 -205 46 -66 33 -126 60 -134 60 -9 0
-26 -7 -38 -16 -18 -13 -21 -21 -16 -53 5 -29 2 -39 -9 -44 -20 -8 -34 10 -39
48 -2 25 -8 31 -31 33 -16 2 -45 -3 -65 -11 -21 -8 -44 -12 -52 -9 -27 9 -60
45 -59 66 0 17 3 16 11 -7 7 -19 15 -26 25 -23 9 4 11 2 7 -6 -5 -8 1 -9 22
-3 16 4 58 8 94 9 36 1 75 7 87 14 28 15 118 16 146 0 12 -6 38 -23 57 -38 41
-32 112 -53 161 -48 33 3 34 4 31 41 -2 30 2 43 19 58 12 10 26 19 30 19 16 0
30 -42 24 -71 -8 -34 -1 -35 51 -11 88 40 84 31 84 179 l0 133 -3241 0 -3241
0 51 -56 c28 -30 51 -63 51 -71 0 -22 88 -150 123 -179 38 -32 60 -30 91 7 18
21 26 26 26 14 0 -24 -46 -65 -74 -65 -45 0 -72 17 -94 62 -13 24 -34 57 -47
74 -22 27 -24 27 -25 8 0 -12 -13 -36 -29 -53 -23 -25 -37 -31 -69 -31 -91 0
-127 85 -62 143 30 27 38 29 87 24 l53 -6 -31 45 c-52 77 -79 84 -296 84 -167
0 -191 -2 -218 -19z m6195 -116 c0 -8 -7 -15 -15 -15 -8 0 -15 7 -15 15 0 8 7
15 15 15 8 0 15 -7 15 -15z m-7047 -345 c62 -55 87 -110 87 -192 0 -38 -7 -82
-16 -104 -9 -21 -18 -81 -21 -134 -7 -127 10 -170 89 -222 30 -20 59 -43 65
-50 17 -22 25 -69 13 -83 -6 -7 -21 -50 -35 -95 -21 -70 -23 -89 -14 -123 15
-56 52 -87 103 -87 23 0 62 -10 86 -22 37 -19 45 -29 48 -53 l2 -30 -14 31
c-17 38 -24 43 -67 48 -137 18 -179 52 -179 147 0 40 8 79 25 121 42 104 30
145 -56 190 -82 43 -113 145 -85 282 40 193 41 204 21 262 -19 56 -81 133
-103 128 -8 -1 -8 0 -1 3 8 4 7 8 -2 14 -8 5 -9 9 -3 9 6 0 32 -18 57 -40z
m6419 -97 c-27 -52 -56 -77 -82 -70 -12 3 -40 -1 -63 -9 -23 -8 -51 -14 -62
-13 -11 2 -31 -1 -45 -6 -31 -10 -91 -8 -102 3 -6 6 6 9 29 9 62 -1 92 10 86
32 -7 29 14 61 41 61 27 0 39 -20 25 -41 -16 -25 -8 -29 44 -20 4 0 7 14 7 30
0 31 23 57 41 46 6 -4 9 -19 5 -36 -9 -47 9 -42 50 15 43 59 56 58 26 -1z
m1298 -33 c0 -21 -75 -92 -122 -116 -70 -35 -198 -27 -248 16 -12 11 -45 26
-74 34 -168 49 -213 43 -297 -40 -45 -45 -62 -55 -92 -56 -21 -1 -45 5 -54 14
-33 29 -159 88 -187 88 -49 0 -93 -28 -110 -71 -9 -22 -16 -46 -16 -54 0 -28
-60 -85 -89 -84 -25 1 -24 1 6 10 29 8 54 35 59 64 1 6 13 36 27 68 22 47 33
61 64 73 50 21 117 7 198 -42 33 -20 76 -39 97 -41 33 -5 40 -1 92 50 92 92
174 99 343 27 127 -55 166 -62 236 -46 68 16 127 53 120 75 -4 14 -3 14 5 2 9
-12 13 -10 23 12 13 28 19 34 19 17z m-7045 -185 l26 -45 -28 -25 c-35 -30
-37 -30 -51 -2 -6 12 -20 36 -32 53 l-21 32 33 20 c18 11 35 19 39 16 4 -2 19
-24 34 -49z m334 -76 c19 -7 31 -18 31 -29 0 -18 -76 -94 -88 -88 -4 2 -24 12
-45 23 l-37 19 42 43 c46 47 50 48 97 32z m231 -130 c0 8 3 11 6 8 4 -4 1 -13
-5 -21 -25 -30 29 -83 78 -77 23 3 23 1 17 -42 -6 -40 -4 -47 16 -61 30 -21
61 -20 108 4 43 22 85 26 96 9 4 -7 0 -9 -13 -5 -10 3 -36 -3 -58 -15 -22 -11
-61 -22 -87 -24 -43 -4 -49 -1 -69 26 -15 22 -20 39 -15 60 5 27 3 29 -24 29
-16 0 -41 10 -55 23 -24 20 -26 27 -20 61 5 26 10 34 16 24 7 -11 9 -11 9 1z
m4595 -23 c30 -45 -20 -91 -64 -59 -25 17 -27 46 -5 67 23 23 51 20 69 -8z
m1430 -206 c20 -39 20 -37 -22 -55 -71 -30 -77 -29 -96 10 -13 27 -14 37 -4
40 63 23 93 34 99 34 4 1 14 -12 23 -29z m-1630 -124 l30 -12 -34 -12 c-32
-11 -33 -13 -27 -52 8 -48 2 -51 -20 -9 -13 26 -20 30 -44 27 -27 -4 -28 -4
-13 19 15 23 14 26 -12 53 -33 34 -31 36 18 15 35 -14 37 -14 49 8 l12 22 5
-24 c4 -13 19 -28 36 -35z m1440 -161 l37 -55 -26 -35 c-15 -19 -31 -35 -36
-35 -13 0 -70 80 -70 98 0 10 38 66 56 81 0 1 18 -24 39 -54z m-6915 -214 c27
-14 36 -26 41 -52 3 -19 13 -48 22 -66 9 -18 17 -39 17 -48 0 -9 9 -33 20 -55
22 -42 26 -85 10 -95 -6 -4 -10 5 -10 20 0 14 -6 41 -14 60 -13 31 -17 34 -48
29 -38 -7 -62 12 -56 43 3 13 12 17 34 16 28 -2 31 0 26 22 -4 24 -15 29 -58
26 -11 -1 -27 5 -34 14 -12 14 -11 18 1 26 8 5 24 9 37 9 34 0 26 13 -29 44
-31 17 -60 26 -74 23 -14 -2 -22 0 -18 6 8 13 90 0 133 -22z m6745 -71 c17
-19 17 -19 -15 -7 -29 11 -33 10 -56 -16 -13 -15 -24 -37 -24 -47 0 -28 -16
-33 -50 -15 -28 14 -32 14 -55 -2 -27 -20 -33 -67 -14 -122 11 -31 6 -81 -9
-81 -4 0 -8 19 -9 43 -1 23 -5 62 -8 87 -3 28 -1 54 7 69 15 29 63 45 90 30
23 -12 27 -10 33 21 10 54 75 78 110 40z m-3259 -172 c-7 11 -4 12 13 3 11 -7
22 -22 22 -34 l2 -22 4 22 c3 18 7 20 18 10 9 -9 10 -14 1 -19 -8 -5 -8 -8 0
-8 7 0 9 -17 6 -49 -2 -29 2 -71 12 -104 13 -46 21 -58 42 -63 38 -10 57 16
64 85 3 33 2 57 -2 55 -4 -3 -8 5 -7 18 0 13 3 17 6 11 2 -7 13 -13 23 -13 10
0 22 -5 26 -12 4 -6 3 -8 -3 -5 -5 3 -10 0 -10 -6 0 -8 12 -12 29 -11 20 1 28
-2 25 -10 -3 -8 3 -12 16 -12 17 1 23 -6 28 -34 4 -21 7 -27 9 -15 1 11 2 24
1 28 -2 9 38 -11 56 -28 7 -7 10 -14 9 -16 -2 -2 3 -11 12 -19 14 -13 15 -12
9 2 -8 21 18 13 47 -14 11 -10 26 -18 34 -18 10 0 13 -8 9 -26 -4 -23 -2 -25
19 -20 13 4 24 2 24 -2 0 -5 12 -7 27 -4 23 4 25 2 20 -17 -3 -11 -1 -21 4
-21 4 0 6 -8 2 -17 -4 -12 0 -11 11 5 10 12 23 22 29 22 7 0 6 -4 -3 -10 -10
-6 -11 -10 -2 -10 6 0 12 -8 13 -17 1 -13 3 -11 7 5 6 21 9 22 27 8 l20 -15
-20 -16 c-20 -16 -19 -16 3 -5 29 14 64 4 60 -18 -2 -10 -11 -16 -20 -16 -10
1 -16 -2 -15 -7 1 -5 -18 -22 -41 -38 -52 -34 -39 -53 14 -20 20 12 39 18 43
13 8 -8 32 -116 27 -121 -1 -1 -33 9 -71 23 -75 27 -229 54 -312 54 l-52 0 6
50 c5 46 4 50 -15 50 -25 0 -25 -1 -47 -169 -12 -92 -13 -126 -5 -131 6 -4 60
-10 119 -13 127 -7 197 -21 269 -53 l54 -24 35 27 c29 22 36 24 44 12 22 -35
38 -30 -363 -130 -123 -31 -128 -33 -128 -58 0 -56 1 -56 255 8 131 33 241 58
244 55 3 -3 5 -86 4 -184 l-2 -178 55 -7 c30 -3 52 -10 50 -13 -7 -12 157 4
200 19 21 7 46 19 56 27 14 12 18 11 28 -5 10 -16 10 -16 5 3 -4 16 0 23 15
27 17 4 19 1 16 -20 -4 -19 -2 -22 8 -14 7 6 15 10 17 8 2 -1 1 2 -3 8 -13 15
-9 20 17 21 19 2 25 -3 26 -20 1 -19 1 -19 8 3 l6 24 13 -27 c13 -28 32 -27
32 2 0 12 9 18 34 19 27 1 33 -2 31 -15 -3 -22 4 -34 16 -26 6 4 6 11 -2 20
-6 8 -10 14 -8 15 38 7 39 7 39 -27 0 -228 -230 -375 -614 -391 -112 -5 -131
-4 -141 10 -10 15 -17 10 -49 -38 -34 -49 -72 -87 -150 -152 -17 -14 -26 -31
-26 -51 0 -45 -36 -175 -63 -229 -47 -91 -138 -153 -225 -153 -51 0 -135 43
-170 88 -41 51 -86 145 -107 220 l-18 63 -80 40 c-77 39 -165 115 -225 194
-13 17 -20 24 -17 18 5 -10 -12 -13 -64 -14 -39 -1 -79 -2 -88 -2 -10 0 -67 2
-126 6 -166 12 -313 64 -394 140 -18 17 -33 26 -33 20 0 -6 -13 -14 -30 -17
-16 -3 -43 -9 -60 -12 -25 -5 -30 -2 -30 14 0 28 44 87 63 86 18 -2 22 8 10
20 -10 10 -11 76 -2 76 4 0 10 -7 13 -16 3 -8 2 -13 -2 -10 -5 3 -9 -1 -9 -9
0 -11 4 -12 14 -4 7 6 11 15 8 19 -3 5 0 12 6 16 7 4 9 3 6 -2 -3 -6 -2 -16 4
-24 6 -11 9 -7 10 15 1 17 3 22 6 13 2 -10 11 -18 18 -18 8 0 19 -8 25 -17 9
-15 10 -14 6 9 -6 29 9 47 26 30 7 -7 6 -18 -3 -33 -11 -21 -10 -22 3 -12 8 7
18 10 22 6 4 -4 4 0 0 10 -5 14 -2 16 12 10 14 -5 16 -3 11 11 -4 10 -3 15 3
11 6 -3 10 -16 10 -28 0 -17 2 -19 9 -8 5 8 7 21 3 30 -3 9 -2 13 2 9 4 -3 9
-14 10 -24 3 -20 26 -32 26 -14 0 6 4 8 10 5 17 -10 51 -14 45 -5 -3 4 -2 10
2 13 5 2 1 2 -7 0 -10 -2 -8 3 5 12 19 15 20 14 25 -8 4 -21 7 -23 18 -11 10
10 10 14 1 14 -7 0 -10 2 -8 5 8 7 49 -7 44 -15 -3 -5 -1 -11 4 -14 5 -4 13
-1 17 5 5 8 3 9 -6 4 -9 -5 -11 -4 -6 3 11 18 26 14 26 -5 0 -15 2 -16 10 -3
9 13 10 13 10 0 0 -13 1 -13 11 0 7 10 12 11 15 3 4 -8 15 -9 37 -2 42 12 42
12 26 -8 -11 -15 -10 -15 8 1 20 16 25 17 40 5 16 -13 17 -12 4 4 -12 15 -11
17 7 17 23 0 45 -23 34 -35 -4 -5 -1 -5 5 -1 14 8 11 123 -6 256 -6 41 -10
101 -11 134 l0 59 43 -6 c61 -8 254 -42 386 -67 62 -12 117 -18 121 -13 5 4
10 21 12 38 3 27 0 30 -37 37 -60 13 -370 68 -447 80 -131 20 -78 33 182 43
138 6 340 22 346 28 1 1 6 69 10 150 7 146 7 147 -15 147 -18 0 -21 -6 -21
-44 l0 -44 -42 -6 c-24 -3 -128 -10 -233 -16 -104 -6 -210 -12 -234 -15 l-44
-5 7 71 c4 39 10 77 13 85 8 20 401 21 409 0 7 -17 88 -76 105 -76 7 0 -19 29
-58 65 -83 76 -103 117 -79 163 15 30 52 47 79 37 7 -3 24 -30 36 -59 24 -59
84 -130 103 -124 18 6 22 45 8 79 -12 29 -92 109 -109 109 -5 0 -14 23 -20 50
-18 85 -12 208 10 194 5 -3 9 2 9 10 0 18 30 26 49 12 12 -9 13 -8 7 2z m130
-114 c-3 -8 -1 -12 4 -9 12 8 22 -33 18 -76 -5 -52 -34 -51 -48 1 -11 40 -12
115 -2 133 7 14 34 -33 28 -49z m-3052 -120 c34 -34 9 -78 -41 -72 -22 2 -29
9 -31 31 -6 50 38 75 72 41z m3476 -77 c0 -2 -9 -3 -20 -3 -11 0 -20 6 -20 13
0 11 5 11 20 3 11 -6 20 -12 20 -13z m-524 -69 c17 -32 18 -62 3 -52 -17 10
-69 96 -69 113 0 19 47 -24 66 -61z m-2616 -11 c0 -5 8 -6 18 -3 69 19 69 19
39 -5 -23 -18 -27 -26 -22 -51 6 -28 5 -29 -13 -19 -29 15 -28 15 -58 -26 -26
-38 -26 -38 -20 -8 4 17 9 38 12 47 3 11 -4 22 -23 32 l-28 15 28 1 c24 0 27
3 27 38 l0 37 20 -25 c11 -14 20 -29 20 -33z m1108 -526 c55 -29 90 -66 101
-108 27 -97 -2 -195 -70 -240 -51 -34 -136 -43 -170 -19 -13 9 -31 16 -40 16
-51 0 -109 91 -109 170 0 69 19 110 68 144 82 57 157 69 220 37z m3860 -196
c28 -13 52 -21 52 -17 0 4 6 -2 13 -13 8 -13 11 -60 9 -140 -2 -113 -4 -122
-30 -159 -42 -60 -74 -79 -140 -84 -45 -3 -68 0 -99 16 -47 24 -100 82 -109
118 -9 35 12 264 25 277 13 13 77 23 161 24 48 1 78 -5 118 -22z m-497 -133
c72 -47 83 -65 87 -143 5 -91 -1 -112 -49 -164 -58 -63 -136 -82 -202 -49 -41
21 -95 71 -113 106 -18 34 -18 119 0 161 44 103 184 148 277 89z m-561 -4 c0
-19 -2 -20 -10 -8 -13 19 -13 30 0 30 6 0 10 -10 10 -22z m-3152 -68 c26 0
118 -91 131 -129 15 -47 14 -126 -3 -160 -25 -48 -89 -97 -144 -111 -88 -21
-195 14 -242 80 -30 43 -28 126 6 176 45 68 86 103 138 120 28 9 55 21 61 25
5 5 16 7 23 4 8 -3 21 -5 30 -5z m866 -30 c-6 -6 -10 -3 -10 10 0 13 4 16 10
10 7 -7 7 -13 0 -20z m42 9 c0 -9 -6 -15 -13 -12 -7 3 -13 11 -13 17 0 7 6 13
13 13 7 0 13 -8 13 -18z m344 -1 c0 -6 -6 -5 -15 2 -8 7 -15 14 -15 16 0 2 7
1 15 -2 8 -4 15 -11 15 -16z m3421 -323 c35 -7 90 -46 99 -71 6 -14 18 -24 29
-24 16 0 21 -9 26 -54 8 -64 -15 -118 -67 -158 -51 -39 -73 -42 -108 -16 -17
12 -45 27 -63 33 -17 6 -31 16 -29 23 1 7 -2 12 -7 12 -14 0 -51 68 -51 94 0
13 -7 29 -15 36 -19 16 -19 35 1 70 22 35 69 63 97 56 12 -3 29 -1 37 4 8 5
18 6 22 4 4 -3 17 -7 29 -9z m-5043 -34 c52 -27 92 -72 103 -117 11 -52 11
-67 -1 -59 -14 9 -40 -13 -34 -29 3 -7 -4 -23 -16 -36 -11 -13 -20 -27 -20
-32 0 -5 -4 -7 -8 -4 -5 3 -15 -4 -22 -14 -10 -13 -18 -16 -26 -9 -8 6 -13 5
-18 -6 -3 -8 -12 -15 -21 -15 -8 0 -15 -4 -15 -10 0 -5 -3 -9 -7 -9 -5 1 -19
1 -33 0 l-25 -2 25 -14 c14 -8 21 -14 15 -15 -5 0 -33 13 -60 29 -65 37 -105
93 -105 147 0 95 34 146 125 190 61 29 94 30 143 5z m1049 -76 c17 -22 47 -60
66 -84 l35 -44 -61 -22 c-34 -12 -83 -31 -109 -43 -26 -12 -53 -22 -60 -22 -8
0 -18 -4 -23 -9 -9 -7 -78 -37 -215 -91 -132 -52 -175 -71 -183 -79 -5 -5 32
-11 90 -15 54 -3 179 -16 278 -27 99 -12 218 -25 265 -29 89 -8 297 -43 365
-62 22 -5 56 -23 75 -38 19 -15 49 -34 65 -43 41 -21 125 -105 125 -124 0 -6
-32 -13 -70 -15 -78 -6 -105 -22 -115 -69 -4 -16 -10 -29 -15 -29 -5 0 -30 19
-57 42 -26 23 -73 53 -103 67 -76 36 -195 35 -290 -2 -76 -29 -160 -28 -160 2
0 29 -30 61 -58 61 -14 0 -38 -11 -52 -25 -26 -25 -27 -25 -69 -10 -24 8 -71
15 -104 15 -63 0 -134 10 -282 40 -49 10 -101 21 -115 23 -54 9 -217 57 -245
71 -17 9 -35 16 -42 16 -19 0 -73 50 -73 68 0 41 197 174 410 274 149 71 276
130 320 150 25 10 68 30 96 44 28 13 55 24 59 24 8 0 73 29 135 60 35 18 35
18 60 -9 14 -15 39 -45 57 -66z m2597 -26 c77 -39 159 -81 181 -94 22 -14 60
-36 85 -49 76 -42 182 -119 203 -148 16 -22 18 -33 11 -58 -7 -26 -19 -35 -68
-55 -33 -13 -76 -41 -97 -61 -36 -35 -38 -36 -60 -20 -31 21 -93 20 -131 -1
-18 -12 -39 -39 -56 -75 -18 -40 -32 -58 -45 -58 -26 0 -57 18 -57 34 0 8 43
59 95 114 l96 101 -68 32 c-37 17 -113 53 -168 79 -104 50 -220 100 -230 100
-4 0 3 -12 14 -26 25 -32 36 -99 23 -144 -6 -19 -11 -29 -11 -22 -1 6 -5 12
-11 12 -5 0 -6 -8 -3 -17 6 -15 4 -16 -8 -6 -9 8 -20 9 -29 3 -13 -9 -13 -10
0 -10 13 0 13 -1 0 -10 -9 -6 -17 -5 -22 3 -5 8 -8 9 -8 1 0 -6 -15 -18 -32
-25 -32 -14 -39 -16 -67 -18 -11 -1 -11 -4 0 -18 12 -16 11 -16 -16 1 -75 47
-105 92 -105 159 0 48 17 107 31 107 9 0 54 -30 113 -75 35 -27 39 -28 51 -12
34 46 50 70 120 171 104 150 109 155 119 156 4 0 72 -32 150 -71z m-1900 10
c18 -92 -6 -167 -69 -215 -63 -48 -163 -44 -229 9 l-28 23 72 49 c40 28 109
75 154 106 44 31 84 57 87 58 4 0 9 -13 13 -30z m3625 -46 c2 -2 2 -5 -1 -8
-2 -3 -18 10 -34 28 l-29 32 30 -25 c17 -14 32 -26 34 -27z m306 -118 c28 -14
64 -39 80 -56 17 -18 25 -29 19 -26 -9 5 -9 -4 -3 -33 25 -110 -52 -227 -161
-245 -67 -11 -169 47 -206 117 -17 32 -17 110 -1 157 16 44 74 91 134 107 54
14 68 12 138 -21z m-5954 -131 c61 -41 82 -83 83 -164 1 -58 -3 -72 -28 -108
-38 -55 -83 -82 -151 -89 -46 -5 -63 -2 -101 18 -72 36 -114 101 -114 175 0
46 33 115 70 147 74 62 168 70 241 21z m-702 -106 c72 -23 90 -33 102 -55 7
-13 14 -22 16 -20 7 8 123 -111 133 -136 19 -51 11 -165 -11 -151 -5 3 -6 -2
-3 -10 3 -9 1 -16 -5 -16 -7 0 -14 6 -17 14 -3 8 -12 12 -20 9 -10 -3 -12 0
-9 10 8 20 -17 28 -55 17 -19 -5 -28 -5 -25 1 4 5 2 9 -4 9 -5 0 -11 -4 -13
-10 -1 -5 -19 -12 -38 -14 -19 -3 -36 -6 -37 -7 -5 -3 -23 -6 -44 -8 -17 -1
-20 -6 -16 -23 6 -22 6 -22 -14 2 -11 14 -27 39 -34 56 -8 17 -30 43 -49 57
-48 37 -72 75 -80 126 -5 35 -4 42 7 38 9 -3 19 7 27 29 8 19 19 34 25 34 6 0
16 5 23 12 10 10 78 41 101 47 3 1 21 -4 40 -11z m5259 -39 c88 -38 106 -100
40 -132 -27 -13 -60 -18 -123 -18 l-86 0 -16 -34 c-11 -24 -24 -35 -38 -35
-12 0 -43 -6 -69 -14 -42 -13 -47 -13 -42 1 14 36 17 92 6 112 -15 29 5 61 61
98 82 54 176 62 267 22z m-399 -63 c40 -21 66 -75 54 -111 -13 -39 -56 -69
-99 -69 -28 0 -43 7 -65 32 -35 39 -37 79 -8 116 35 45 73 55 118 32z m-352
-20 c4 -4 7 -158 8 -344 l0 -336 32 -9 c37 -11 47 -28 30 -51 -10 -13 -22 -14
-72 -7 -78 11 -394 4 -467 -10 -74 -15 -88 -5 -80 54 l5 42 -46 -41 c-54 -48
-141 -79 -194 -71 -141 23 -142 185 -1 258 44 22 149 49 196 49 28 0 32 3 32
25 0 56 -61 127 -119 140 -59 13 -151 -61 -151 -122 0 -31 -28 -57 -46 -42
-20 16 -17 56 7 105 38 80 133 143 228 151 182 17 280 -115 281 -377 l0 -85
48 -11 c26 -6 64 -9 85 -6 l37 4 1 147 c5 495 6 485 -16 489 -53 8 -65 13 -65
31 0 10 2 20 4 22 8 8 255 3 263 -5z m-2608 -165 c6 -10 8 -21 5 -23 -3 -3
-13 -54 -22 -114 -16 -104 -18 -109 -42 -109 -21 0 -26 6 -33 43 -11 56 -65
112 -108 112 -66 0 -106 -39 -133 -130 -32 -108 -17 -218 39 -278 29 -32 40
-37 77 -37 56 0 97 30 130 92 37 74 88 65 57 -9 -69 -167 -315 -200 -441 -60
-88 98 -89 285 -2 399 78 103 265 125 359 41 20 -17 38 -28 41 -25 3 3 8 25
11 49 2 24 6 49 9 56 5 19 42 14 53 -7z m3306 -28 c164 -68 295 -179 295 -251
0 -35 -38 -72 -73 -72 -60 1 -118 38 -212 134 -54 56 -123 115 -173 146 -45
29 -80 55 -78 57 10 10 104 20 141 15 22 -2 67 -16 100 -29z m-2826 -34 c101
-50 153 -137 154 -254 1 -109 -48 -198 -137 -250 -116 -68 -270 -45 -359 54
-44 48 -60 103 -60 198 0 216 210 348 402 252z m2748 -101 c105 -83 162 -173
163 -256 0 -35 -4 -44 -24 -53 -14 -7 -40 -9 -60 -5 -43 8 -188 81 -210 105
-11 12 -19 56 -26 142 -6 68 -13 137 -16 153 l-6 29 58 -33 c33 -18 87 -55
121 -82z m-2020 82 c18 -10 40 -31 49 -45 l17 -26 31 30 c93 90 212 78 258
-26 19 -43 20 -59 14 -178 -3 -71 -9 -141 -12 -155 -5 -24 -2 -27 38 -35 33
-8 43 -15 43 -30 0 -18 -9 -20 -115 -26 -90 -5 -118 -4 -129 7 -21 19 3 44 43
44 17 0 37 4 44 8 17 11 33 117 35 227 1 94 -15 146 -48 159 -30 11 -80 6
-105 -11 -62 -42 -86 -101 -94 -228 -4 -54 -9 -109 -12 -121 -5 -19 0 -23 36
-29 40 -7 61 -28 44 -45 -5 -4 -61 -10 -124 -11 l-115 -4 0 25 c0 22 5 25 42
28 23 2 46 8 51 15 15 18 32 255 23 305 -11 57 -35 82 -80 82 -49 0 -99 -43
-134 -114 -26 -53 -27 -63 -25 -173 3 -116 3 -117 28 -123 16 -4 25 -13 25
-25 0 -19 -8 -20 -100 -20 -55 -1 -130 -4 -166 -9 -58 -7 -67 -6 -73 9 -9 25
11 44 56 51 l38 7 -2 191 -3 191 -42 3 c-45 3 -67 20 -57 45 5 14 25 16 147
13 l142 -3 5 -37 5 -38 25 27 c31 34 95 64 135 65 17 0 44 -9 62 -20z m1811
-212 c3 -253 -4 -230 67 -240 14 -2 20 -11 20 -28 0 -24 -2 -25 -50 -20 -27 3
-86 5 -130 5 -44 0 -102 -2 -130 -5 -48 -5 -50 -4 -50 20 0 17 6 26 20 28 11
1 30 5 43 8 l22 4 -2 198 -3 197 -42 3 c-49 4 -72 24 -53 47 9 11 39 14 148
12 l137 -2 3 -227z m-2348 -236 c0 -21 7 -47 15 -59 14 -20 14 -28 0 -85 -9
-35 -20 -75 -25 -91 -5 -16 -5 -41 1 -60 13 -47 13 -47 -34 -47 -34 0 -49 -6
-68 -26 -65 -69 -165 -124 -256 -139 l-41 -7 39 79 c181 353 182 354 237 397
128 99 132 100 132 38z m-592 1 c20 -15 41 -30 45 -33 6 -5 -183 -441 -199
-459 -7 -8 -65 43 -79 69 -22 42 -18 108 9 165 21 47 92 164 105 175 3 3 22
29 41 57 19 29 36 53 38 53 2 0 20 -12 40 -27z m166 -118 c-4 -11 -46 -103
-95 -205 l-87 -185 -51 0 c-27 1 -53 3 -56 7 -6 6 46 125 145 335 l52 110 49
-20 c41 -18 48 -24 43 -42z m2517 -11 c7 -9 62 -50 120 -90 59 -41 110 -81
113 -90 14 -36 5 -67 -28 -100 -28 -28 -41 -34 -78 -34 -84 0 -228 87 -348
210 -41 42 -82 90 -92 106 l-16 29 116 3 c64 2 123 7 131 12 16 9 55 -13 82
-46z m-1913 31 c4 -4 8 -39 10 -78 2 -55 -1 -80 -15 -106 -31 -59 -102 -94
-138 -67 -25 18 -22 110 5 200 l22 69 55 -6 c30 -3 58 -9 61 -12z m-504 -205
l-107 -209 -41 -6 c-22 -4 -58 -5 -78 -3 l-38 3 102 207 101 207 66 4 c36 2
74 4 83 5 14 2 -8 -49 -88 -208z m1526 195 c30 -2 61 2 68 7 7 6 33 8 65 4 28
-4 71 -10 95 -13 23 -3 42 -7 42 -10 0 -11 -25 -51 -57 -90 -83 -103 -200
-127 -326 -65 -44 22 -73 44 -86 66 -27 44 -26 62 5 93 24 24 30 25 82 18 32
-4 82 -9 112 -10z m-360 -182 c67 -15 110 -47 110 -81 0 -42 -64 -95 -152
-125 -47 -15 -48 -15 -48 4 0 11 -6 35 -14 54 -28 67 -106 68 -263 1 -154 -66
-265 -59 -372 22 l-33 26 43 21 c40 19 47 19 73 6 52 -25 175 -9 291 39 55 23
118 45 140 50 49 10 138 4 225 -17z m1120 -54 c30 -23 56 -44 58 -49 4 -10
-75 -20 -158 -20 -83 0 -166 15 -198 36 -22 15 -23 17 -7 34 23 26 76 38 170
39 79 1 81 0 135 -40z m-413 -116 c211 -224 235 -251 231 -259 -2 -5 -74 -8
-161 -9 -146 0 -159 1 -176 20 -19 21 -271 372 -271 377 0 2 17 2 38 0 21 -2
53 1 72 6 19 6 56 11 82 11 l46 1 139 -147z m734 -20 c72 -26 78 -53 17 -79
-56 -23 -334 -33 -417 -14 -111 25 -125 64 -34 94 72 23 96 25 244 21 99 -3
150 -9 190 -22z m-243 -226 c6 -7 19 -35 28 -62 20 -55 22 -190 4 -325 -5 -41
-14 -147 -19 -236 -6 -88 -13 -167 -16 -175 -14 -36 -60 -49 -177 -49 -102 0
-119 3 -165 25 -149 75 -245 302 -185 438 25 57 85 102 155 117 29 6 97 10
152 8 81 -2 100 -6 100 -18 0 -10 -13 -16 -40 -19 l-40 -3 55 -19 c30 -10 58
-19 63 -19 4 0 7 61 7 136 0 117 2 135 15 130 11 -4 15 2 15 27 0 47 26 71 48
44z m-4988 -67 c41 -41 13 -112 -45 -112 -58 0 -86 71 -45 112 11 11 31 20 45
20 14 0 34 -9 45 -20z m3640 -89 c5 -11 10 -30 10 -43 0 -13 5 -29 11 -35 13
-13 -5 -228 -20 -248 -4 -5 -13 -36 -19 -68 -22 -112 -92 -211 -178 -252 -39
-18 -136 -19 -187 -1 -49 18 -104 61 -128 100 -28 45 -38 88 -51 201 -9 93 -4
178 18 292 6 30 34 19 34 -13 0 -37 17 -29 24 12 7 34 29 54 44 39 4 -3 9 -97
12 -208 6 -217 10 -236 64 -286 21 -20 37 -25 80 -25 59 -1 93 20 123 78 27
51 63 216 63 287 0 72 14 124 30 114 10 -6 14 1 24 48 7 31 31 36 46 8z
m-1597 -24 c67 -31 140 -85 132 -97 -9 -15 -41 -12 -55 5 -7 8 -17 15 -22 15
-5 0 7 -19 26 -42 35 -40 46 -68 27 -68 -5 0 -48 19 -95 41 -100 48 -151 54
-193 23 -20 -15 -29 -31 -31 -58 -3 -31 0 -37 23 -46 14 -6 81 -10 149 -10
110 0 127 -2 172 -25 68 -34 95 -82 96 -171 1 -167 -136 -281 -297 -246 -126
26 -230 82 -230 123 0 13 -8 36 -18 51 -10 15 -16 32 -12 38 9 14 29 7 144
-48 74 -35 108 -46 160 -49 63 -5 67 -4 94 25 47 49 57 150 17 172 -9 5 -84 8
-166 7 -141 -2 -151 -1 -187 22 -89 55 -110 169 -48 260 72 108 188 137 314
78z m3440 0 c67 -31 140 -85 132 -97 -9 -15 -41 -12 -55 5 -7 8 -17 15 -22 15
-5 0 7 -19 26 -42 35 -40 46 -68 27 -68 -5 0 -48 19 -95 41 -100 48 -151 54
-193 23 -20 -15 -29 -31 -31 -58 -3 -31 0 -37 23 -46 14 -6 80 -10 146 -10
128 0 172 -11 217 -53 40 -37 55 -76 55 -145 0 -124 -86 -231 -201 -248 -110
-16 -331 69 -324 125 1 13 -7 34 -18 48 -11 14 -20 32 -20 40 0 21 32 12 147
-44 76 -36 110 -47 162 -50 63 -5 67 -4 94 25 47 49 57 150 17 172 -9 5 -84 8
-166 7 -141 -2 -151 -1 -187 22 -89 55 -110 169 -48 260 72 108 188 137 314
78z m-1318 0 c21 -12 54 -41 72 -65 51 -68 92 -226 93 -359 0 -46 -3 -53 -20
-53 -16 0 -20 -7 -20 -33 0 -18 -7 -42 -15 -53 -13 -16 -16 -17 -25 -4 -6 8
-13 26 -15 40 -3 14 -10 39 -15 56 -6 17 -14 66 -20 110 -12 103 -40 215 -58
236 -20 24 -78 34 -99 17 -13 -11 -40 -61 -48 -89 -1 -3 -7 -18 -14 -35 -20
-47 -52 -216 -50 -260 2 -48 -10 -123 -21 -130 -4 -2 -32 4 -61 14 l-54 18 0
279 c0 241 2 279 15 279 10 0 17 -13 20 -35 6 -41 15 -31 25 27 4 24 12 46 17
49 15 10 38 -24 38 -55 0 -25 0 -25 38 11 20 21 48 41 62 47 44 17 112 12 155
-12z m-1413 -38 c23 -12 71 -50 104 -84 55 -56 64 -72 89 -149 29 -93 29 -141
-2 -218 -22 -55 -120 -142 -190 -168 -107 -41 -232 -27 -294 34 -58 56 -74
107 -74 231 0 100 2 115 27 160 33 63 90 118 148 144 40 18 43 21 23 27 -25 7
-31 39 -10 47 31 11 138 -3 179 -24z m-2632 -59 c4 -3 2 -11 -6 -18 -8 -7 -14
-8 -14 -2 0 5 -7 10 -15 10 -12 0 -12 3 3 18 10 10 19 13 21 7 2 -5 7 -12 11
-15z m-171 -90 c4 0 12 5 19 12 9 9 12 9 12 1 0 -7 -6 -15 -12 -20 -9 -5 -1
-10 22 -14 l35 -6 -32 -2 c-34 -1 -40 -9 -23 -29 7 -9 7 -9 -2 -2 -20 17 -28
11 -30 -22 l-1 -33 -4 33 c-4 29 -6 32 -20 20 -14 -11 -15 -10 -9 10 6 19 4
22 -21 23 -25 2 -24 2 7 8 32 5 35 9 39 46 5 39 5 39 9 8 2 -18 7 -33 11 -33z
m-131 -208 c2 -14 -2 -22 -12 -22 -19 0 -29 17 -22 36 8 22 30 12 34 -14z
m718 -196 l269 -114 3 -74 3 -73 -154 -66 c-84 -36 -158 -64 -165 -61 -33 11
-1 34 113 82 68 29 122 56 119 61 -3 5 -22 13 -42 20 -35 10 -47 7 -199 -57
-90 -38 -159 -72 -155 -76 4 -4 114 -53 245 -109 l238 -102 -3 -74 -3 -74
-150 -65 c-82 -35 -156 -62 -163 -59 -29 11 0 32 112 80 65 28 118 55 118 60
0 5 -17 15 -37 23 -35 14 -38 13 -193 -53 -86 -36 -160 -70 -165 -74 -4 -4
102 -54 235 -112 l243 -104 3 -76 3 -76 -272 -117 c-150 -64 -279 -114 -286
-112 -10 4 -13 24 -11 77 l3 72 163 70 c114 49 166 67 174 59 6 -6 8 -14 5
-19 -4 -6 -74 -38 -157 -73 l-150 -64 0 -39 c0 -21 4 -37 9 -35 112 43 449
194 443 199 -4 4 -116 54 -250 110 l-243 104 3 73 3 74 165 72 c91 39 168 75
170 79 3 5 -71 41 -165 81 l-170 73 -3 74 -3 74 176 74 c96 41 173 76 170 79
-3 3 -81 38 -173 77 l-167 72 -3 63 c-3 66 1 90 16 90 5 0 130 -51 278 -114z
m3711 -2 c136 -58 254 -113 261 -122 6 -9 12 -43 12 -77 l0 -61 -147 -62
c-152 -64 -183 -72 -183 -48 0 8 50 35 124 67 69 29 123 56 121 59 -2 4 -22
12 -44 20 -39 12 -43 11 -200 -56 -89 -38 -161 -71 -161 -74 0 -3 106 -50 236
-105 130 -55 240 -105 245 -112 6 -6 9 -41 7 -78 l-3 -66 -153 -65 c-84 -35
-157 -62 -162 -59 -25 16 -1 34 108 79 64 27 121 52 125 56 4 4 -10 15 -33 25
l-40 18 -161 -68 c-88 -38 -162 -72 -164 -75 -3 -4 105 -54 238 -111 l242
-104 3 -76 3 -76 -273 -117 c-151 -64 -279 -116 -286 -116 -10 0 -12 20 -10
77 l3 77 163 70 c117 50 165 67 173 59 6 -6 9 -16 5 -21 -3 -5 -73 -38 -156
-72 l-150 -63 0 -38 c0 -32 3 -37 18 -32 9 4 114 49 232 99 l215 93 -50 21
c-28 12 -141 60 -253 107 l-203 86 3 75 3 75 169 74 c93 40 171 75 173 77 2 2
-74 37 -169 78 l-173 74 -3 75 -3 75 176 74 c96 40 173 76 170 79 -3 3 -81 37
-173 77 l-167 72 2 43 c1 49 18 99 32 99 5 0 121 -48 258 -106z m-3177 -269
c5 -14 16 -25 25 -25 8 0 15 -7 15 -15 0 -8 -6 -15 -13 -15 -7 0 -17 -10 -22
-21 -6 -12 -14 -22 -20 -22 -5 0 -14 10 -20 22 -5 11 -18 21 -27 21 -24 0 -23
27 1 35 11 3 23 15 26 26 9 26 24 24 35 -6z m3710 0 c5 -14 16 -25 25 -25 8 0
15 -7 15 -15 0 -8 -9 -15 -19 -15 -12 0 -21 -8 -23 -20 -4 -27 -21 -28 -33 -1
-5 11 -18 21 -27 21 -10 0 -18 7 -18 15 0 8 9 15 19 15 12 0 21 9 25 25 4 14
11 25 16 25 6 0 15 -11 20 -25z m-1730 -434 c0 -10 9 -21 20 -24 11 -3 20 -12
20 -21 0 -9 -8 -16 -20 -16 -13 0 -20 -7 -20 -20 0 -12 -7 -20 -16 -20 -9 0
-18 9 -21 20 -3 11 -14 20 -24 20 -25 0 -25 30 0 37 11 3 21 13 24 24 7 25 37
25 37 0z m3577 0 c3 -11 13 -21 24 -24 25 -7 25 -37 -1 -37 -13 0 -20 -7 -20
-20 0 -13 -7 -20 -20 -20 -13 0 -20 7 -20 20 0 13 -7 20 -18 20 -10 0 -21 3
-25 6 -11 11 5 34 24 34 12 0 19 7 19 20 0 26 30 26 37 1z"/>
<path d="M6410 7406 c-6 -9 -10 -21 -8 -28 3 -8 9 -4 17 10 15 28 9 39 -9 18z"/>
<path d="M360 6100 c0 -12 28 -25 36 -17 3 3 -4 10 -15 17 -15 7 -21 7 -21 0z"/>
<path d="M4180 5806 c0 -2 9 -6 20 -9 11 -3 18 -1 14 4 -5 9 -34 13 -34 5z"/>
<path d="M4273 5753 c9 -2 23 -2 30 0 6 3 -1 5 -18 5 -16 0 -22 -2 -12 -5z"/>
<path d="M5101 4774 c0 -11 3 -14 6 -6 3 7 2 16 -1 19 -3 4 -6 -2 -5 -13z"/>
<path d="M5194 4779 c-4 -7 -3 -9 4 -5 5 3 12 0 15 -6 2 -7 7 -10 11 -7 4 3 0
12 -8 18 -11 9 -16 9 -22 0z"/>
<path d="M2760 4690 c0 -5 5 -10 10 -10 6 0 10 5 10 10 0 6 -4 10 -10 10 -5 0
-10 -4 -10 -10z"/>
<path d="M4497 3179 c-121 -28 -197 -120 -135 -163 31 -22 84 -20 135 5 53 26
133 113 133 145 0 22 -4 24 -47 23 -27 -1 -65 -5 -86 -10z"/>
<path d="M2913 3434 c-54 -27 -78 -90 -78 -204 0 -81 4 -102 25 -145 32 -64
74 -83 141 -65 138 37 186 244 86 366 -50 60 -113 78 -174 48z m151 -99 c41
-44 47 -125 15 -191 -33 -69 -80 -71 -117 -5 -16 27 -22 56 -22 96 0 52 3 60
34 91 41 41 59 42 90 9z"/>
<path d="M5055 1940 c-152 -12 -195 -35 -195 -104 0 -45 34 -127 75 -180 37
-48 80 -66 162 -66 l70 0 7 138 c3 75 9 156 12 180 6 37 4 42 -12 41 -11 -1
-64 -5 -119 -9z"/>
<path d="M2880 2014 l-25 -14 30 1 c86 5 98 -13 36 -54 -90 -60 -128 -135
-118 -237 6 -66 19 -91 60 -115 61 -37 190 1 243 70 78 103 11 261 -145 340
-59 29 -50 28 -81 9z"/>
<path d="M80 1745 c0 -8 5 -15 10 -15 6 0 10 7 10 15 0 8 -4 15 -10 15 -5 0
-10 -7 -10 -15z"/>
<path d="M570 1572 l0 -37 236 -100 c129 -55 240 -102 245 -104 6 -2 9 13 7
35 l-3 38 -240 103 c-131 57 -241 103 -242 103 -2 0 -3 -17 -3 -38z"/>
<path d="M570 1122 l0 -37 228 -97 c125 -54 235 -100 245 -104 16 -6 18 -2 15
32 l-3 38 -228 97 c-125 53 -234 100 -242 103 -12 4 -15 -3 -15 -32z"/>
<path d="M572 664 l3 -35 220 -95 c276 -119 265 -116 265 -71 l0 35 -236 101
c-129 55 -240 101 -245 101 -6 0 -9 -16 -7 -36z"/>
<path d="M4280 1571 c0 -36 3 -40 43 -56 23 -9 131 -55 239 -101 109 -46 201
-84 204 -84 3 0 4 17 2 37 l-3 37 -239 103 c-131 57 -240 103 -242 103 -2 0
-4 -18 -4 -39z"/>
<path d="M4280 1121 l0 -38 239 -102 c132 -55 242 -101 246 -101 3 0 5 16 3
36 l-3 37 -225 96 c-124 54 -233 100 -242 104 -15 5 -18 0 -18 -32z"/>
<path d="M4282 664 l3 -35 220 -95 c276 -119 265 -116 265 -72 l0 35 -237 101
c-131 56 -242 102 -246 102 -5 0 -7 -16 -5 -36z"/>
<path d="M1495 7850 c-53 -21 -59 -79 -13 -113 22 -17 33 -19 54 -11 29 10 58
45 69 82 5 19 1 25 -29 37 -39 17 -52 17 -81 5z"/>
<path d="M7816 7735 c-7 -19 3 -47 15 -39 12 7 12 54 0 54 -5 0 -11 -7 -15
-15z"/>
<path d="M7380 7660 c0 -5 5 -10 11 -10 5 0 7 5 4 10 -3 6 -8 10 -11 10 -2 0
-4 -4 -4 -10z"/>
<path d="M7990 6905 c0 -8 -4 -15 -9 -15 -11 0 -20 -34 -32 -115 -10 -69 1
-123 31 -150 20 -18 20 -18 20 138 0 87 -2 157 -5 157 -3 0 -5 -7 -5 -15z"/>
<path d="M7835 6015 c-34 -33 -33 -78 1 -108 43 -37 61 -39 84 -10 30 38 27
96 -6 122 -34 27 -50 26 -79 -4z"/>
<path d="M7970 1632 c0 -27 5 -42 16 -46 12 -5 15 2 12 36 -4 55 -28 64 -28
10z"/>
<path d="M7565 1234 l-240 -102 -3 -41 -3 -41 53 23 c29 13 136 59 238 102
102 43 189 81 193 85 5 4 7 23 5 42 l-3 35 -240 -103z"/>
<path d="M203 1191 l-203 -86 0 -39 c0 -26 4 -37 13 -33 65 25 384 162 390
167 5 4 7 23 5 42 l-3 35 -202 -86z"/>
<path d="M3860 1171 l-225 -98 -3 -41 -3 -40 243 104 243 103 3 36 c3 29 0 35
-15 34 -10 0 -119 -45 -243 -98z"/>
<path d="M7970 1181 c0 -25 5 -41 15 -45 12 -4 15 3 15 33 0 25 -5 41 -15 45
-12 4 -15 -3 -15 -33z"/>
<path d="M2550 1133 l0 -38 237 -100 c130 -55 240 -102 245 -104 5 -2 8 14 6
35 l-3 39 -235 102 c-129 56 -238 102 -242 102 -5 1 -8 -16 -8 -36z"/>
<path d="M6130 1133 l0 -38 158 -67 c86 -36 194 -82 240 -102 l82 -35 0 38 0
38 -231 99 c-127 54 -235 101 -240 102 -5 2 -9 -14 -9 -35z"/>
<path d="M18 993 c-11 -3 -18 -14 -18 -27 0 -20 15 -30 103 -68 62 -27 102
-50 102 -59 0 -21 -31 -15 -122 25 l-83 35 0 -99 c0 -55 3 -100 6 -100 19 0
363 155 357 161 -10 10 -312 139 -321 138 -4 -1 -15 -3 -24 -6z"/>
<path d="M7555 780 l-230 -99 -3 -41 c-2 -29 0 -39 10 -35 7 3 117 50 243 104
l230 98 3 36 c2 26 -1 37 -10 36 -7 0 -116 -45 -243 -99z"/>
<path d="M2138 737 l-237 -102 -1 -39 c0 -32 3 -37 18 -32 9 4 119 51 245 104
l227 97 0 37 c0 21 -3 38 -7 37 -5 0 -115 -46 -245 -102z"/>
<path d="M5718 737 l-238 -102 0 -37 c0 -21 3 -38 8 -37 4 0 113 46 242 102
223 97 235 103 238 131 2 16 0 32 -5 37 -4 4 -115 -38 -245 -94z"/>
<path d="M193 737 l-192 -82 -1 -38 c0 -46 -20 -51 220 52 l185 80 3 35 c2 25
-1 36 -10 35 -7 0 -99 -37 -205 -82z"/>
<path d="M3905 737 c-273 -119 -275 -120 -275 -163 l0 -36 26 17 c14 9 34 18
44 20 10 2 107 42 216 88 l199 85 3 36 c2 25 -1 36 -10 36 -7 -1 -98 -38 -203
-83z"/>
<path d="M7972 723 c4 -52 28 -56 28 -4 0 30 -4 41 -16 41 -11 0 -14 -9 -12
-37z"/>
<path d="M2550 683 l0 -38 236 -100 c129 -55 239 -102 245 -104 6 -2 9 12 7
35 l-3 39 -240 103 c-132 56 -241 102 -242 102 -2 0 -3 -17 -3 -37z"/>
<path d="M6130 682 l0 -37 233 -99 c127 -55 235 -101 240 -103 4 -2 7 13 7 35
l0 39 -207 88 c-115 48 -223 94 -240 102 l-33 13 0 -38z"/>
<path d="M16 537 c-37 -27 -15 -49 92 -95 56 -25 102 -49 102 -54 0 -22 -35
-17 -115 17 -47 21 -88 35 -91 32 -3 -2 -3 -47 -2 -99 l3 -95 170 73 c94 40
176 76 184 81 10 7 -30 28 -141 76 -86 37 -163 69 -170 72 -7 3 -22 -1 -32 -8z"/>
<path d="M7558 327 l-238 -102 0 -38 c0 -21 4 -37 9 -35 5 2 116 48 245 103
l236 100 0 37 c0 21 -3 38 -7 38 -5 -1 -115 -47 -245 -103z"/>
<path d="M2145 287 l-240 -102 -3 -39 c-3 -34 -1 -38 15 -32 10 4 120 50 246
103 l227 96 0 39 c0 21 -1 38 -2 38 -2 0 -111 -47 -243 -103z"/>
<path d="M5720 287 c-129 -55 -237 -102 -239 -104 -8 -6 -9 -73 -1 -73 12 0
463 192 478 203 13 10 17 63 5 70 -5 3 -114 -41 -243 -96z"/>
<path d="M200 285 l-195 -83 -3 -41 -3 -41 83 36 c46 20 138 59 205 87 l123
52 0 38 c0 20 -3 37 -7 36 -5 0 -96 -38 -203 -84z"/>
<path d="M3920 290 c-285 -123 -290 -126 -290 -167 0 -19 3 -33 8 -31 23 11
78 35 267 115 l210 89 3 37 c2 20 0 37 -5 37 -4 0 -91 -36 -193 -80z"/>
<path d="M7983 333 c-16 -6 -18 -83 -3 -83 15 0 22 23 18 57 -2 19 -8 28 -15
26z"/>
<path d="M2550 231 l0 -39 224 -96 c123 -53 234 -96 246 -96 18 0 21 5 18 31
-3 33 21 21 -420 209 l-68 29 0 -38z"/>
<path d="M6132 229 l3 -40 220 -95 c121 -52 228 -94 238 -94 15 0 18 6 15 32
-3 32 -5 33 -241 134 l-238 103 3 -40z"/>
<path d="M1965 90 c-40 -18 -40 -18 -15 -28 14 -5 51 -22 84 -36 49 -22 73
-26 150 -26 l91 0 -129 55 c-71 30 -132 55 -135 54 -3 0 -24 -9 -46 -19z"/>
<path d="M5545 91 l-40 -19 50 -22 c110 -48 120 -51 204 -48 l83 3 -124 53
c-68 28 -125 52 -128 52 -3 0 -23 -9 -45 -19z"/>
</g>
</svg>
